Coordinates
version=1
nRows=13
nColumns=40
inDegrees=yes

Units are S.I. units (second, meters, Newtons, ...)
Angles are in degrees.

endheader
time	pelvis_tilt	pelvis_list	pelvis_rotation	pelvis_tx	pelvis_ty	pelvis_tz	hip_flexion_r	hip_adduction_r	hip_rotation_r	knee_angle_r	knee_angle_r_beta	ankle_angle_r	subtalar_angle_r	mtp_angle_r	hip_flexion_l	hip_adduction_l	hip_rotation_l	knee_angle_l	knee_angle_l_beta	ankle_angle_l	subtalar_angle_l	mtp_angle_l	lumbar_extension	lumbar_bending	lumbar_rotation	arm_flex_r	arm_add_r	arm_rot_r	elbow_flex_r	pro_sup_r	wrist_flex_r	wrist_dev_r	arm_flex_l	arm_add_l	arm_rot_l	elbow_flex_l	pro_sup_l	wrist_flex_l	wrist_dev_l
      6.62564286	     -3.54623435	     -4.22301414	    -11.32820118	      0.96059345	      0.93320126	      0.40331171	     23.30035530	     -1.26789498	     -5.74657202	     15.87774569	     15.87774569	      5.24385372	     11.40553572	      5.97906803	      7.21971844	     -3.81624645	    -15.06499786	     18.23202737	     18.23202737	     15.34002596	    -14.04076046	     -0.84337528	     -9.33404436	      6.11681862	      1.09491275	    -23.97458216	    -10.86208948	    -10.07356027	     30.18517331	     46.21784308	      0.00000000	      0.00000000	     41.88042298	    -23.72423743	     -8.27073498	     70.11164585	     48.23099315	      0.00000000	      0.00000000
      6.64628571	     -3.62442580	     -3.97034785	    -11.57924501	      0.96107994	      0.93246051	      0.40549896	     22.64974142	     -1.17754043	     -5.96546228	     13.63237768	     13.63237768	      4.60388249	     13.19776742	      6.89382952	      6.76391234	     -3.62796966	    -15.46757914	     17.85235594	     17.85235594	     15.44385029	    -13.71694130	     -1.18181357	     -9.16947822	      5.91186870	      1.22064773	    -24.20951827	    -10.92685755	    -10.06166971	     30.27747896	     46.20938662	      0.00000000	      0.00000000	     42.77155765	    -23.94322134	     -8.59009416	     70.82136154	     48.26698316	      0.00000000	      0.00000000
      6.66692857	     -3.66301897	     -3.73209198	    -11.76684295	      0.96179473	      0.93160564	      0.40778802	     22.11930454	     -1.14874133	     -6.16876881	     12.13366199	     12.13366199	      4.05162840	     14.68552773	      7.48872822	      6.33994770	     -3.48322946	    -15.88025686	     17.64265034	     17.64265034	     15.57052717	    -13.37358456	     -1.64933005	     -9.03763473	      5.73422707	      1.28008835	    -24.23639719	    -11.00019112	    -10.08658553	     30.45767907	     46.20156360	      0.00000000	      0.00000000	     43.45848159	    -24.03246340	     -9.03002076	     71.57786942	     48.31031756	      0.00000000	      0.00000000
      6.68757143	     -3.69462667	     -3.53358635	    -11.89750955	      0.96274205	      0.93068594	      0.41027149	     21.73476270	     -1.11379088	     -6.20385588	     11.32314395	     11.32314395	      3.52435682	     15.63866071	      7.31142895	      5.93121779	     -3.42708784	    -16.35824383	     17.50961410	     17.50961410	     15.57695515	    -12.92612484	     -2.63452360	     -8.91990424	      5.62622308	      1.15621838	    -24.03303079	    -11.17256535	    -10.16928496	     30.79327914	     46.18990755	      0.00000000	      0.00000000	     43.64709489	    -24.05731019	    -10.21086670	     72.79091948	     48.39696853	      0.00000000	      0.00000000
      6.70821429	     -3.71762220	     -3.35899796	    -11.93800157	      0.96393017	      0.92980300	      0.41286461	     21.33914974	     -1.05840888	     -5.95003508	     10.79786562	     10.79786562	      2.60188099	     15.91255044	      5.59776134	      5.53081170	     -3.35704121	    -16.52799430	     17.42149960	     17.42149960	     15.66950283	    -12.75906563	     -3.20547354	     -8.78665852	      5.56825869	      0.95374916	    -23.51386806	    -11.38392682	    -10.13959786	     30.67905334	     46.18993640	      0.00000000	      0.00000000	     43.66272877	    -24.11175657	    -11.17851758	     73.74106714	     48.45146168	      0.00000000	      0.00000000
      6.72885714	     -3.81816077	     -3.23263972	    -11.89197860	      0.96528019	      0.92896641	      0.41564251	     21.19072980	     -1.00199132	     -5.80178176	     10.88973586	     10.88973586	      2.44111014	     15.97564523	      5.59355718	      5.24807664	     -3.35165034	    -16.45005849	     17.42482532	     17.42482532	     15.91314899	    -12.77736960	     -3.29624310	     -8.52270791	      5.61454609	      1.03761212	    -23.28380507	    -11.46116871	    -10.14588620	     30.75322761	     46.18922478	      0.00000000	      0.00000000	     43.78868098	    -24.10521993	    -11.18793949	     73.81013225	     48.45374426	      0.00000000	      0.00000000
      6.74950000	     -3.87467010	     -3.18749733	    -11.77273848	      0.96678708	      0.92833449	      0.41859562	     20.99734667	     -0.88976579	     -5.62215165	     11.18127015	     11.18127015	      2.37351243	     15.88598450	      5.39281186	      4.84294956	     -3.41852197	    -16.33979890	     17.31605942	     17.31605942	     16.18750870	    -12.70837208	     -3.37275400	     -8.37762232	      5.69002548	      1.10827750	    -22.76131984	    -11.65946995	    -10.16500600	     30.90981789	     46.18855332	      0.00000000	      0.00000000	     43.90471679	    -23.94095737	    -11.18493642	     73.91948546	     48.45523900	      0.00000000	      0.00000000
      6.77014286	     -3.75846444	     -3.21722294	    -11.52744094	      0.96860653	      0.92805080	      0.42171080	     20.80648447	     -0.76992776	     -5.42742804	     12.00395033	     12.00395033	      2.52484059	     15.29759452	      4.71613380	      4.12815107	     -3.52402191	    -16.23177004	     17.00594001	     17.00594001	     16.35634245	    -12.43069172	     -3.34117626	     -8.42126451	      5.89749169	      1.08338769	    -22.21452238	    -11.86898467	    -10.18883138	     31.03077265	     46.18972790	      0.00000000	      0.00000000	     43.80488104	    -23.67088003	    -11.26476543	     74.03750288	     48.45996605	      0.00000000	      0.00000000
      6.79078571	     -3.64561606	     -2.98135651	    -11.32754396	      0.97070784	      0.92758854	      0.42533585	     20.61850377	     -0.75125410	     -4.43624878	     12.62018791	     12.62018791	      0.90869608	     13.47829798	     -1.87470773	      3.37444914	     -3.38001459	    -16.32991406	     16.60308879	     16.60308879	     16.83610745	    -11.73126227	     -2.81912544	     -8.38598905	      5.68942810	      0.47418154	    -21.25094536	    -12.11212370	    -10.05887488	     30.34777750	     46.20774823	      0.00000000	      0.00000000	     42.83457493	    -23.87753572	    -12.95465251	     75.32287096	     48.54685071	      0.00000000	      0.00000000
      6.81142857	     -3.61406024	     -3.01064895	    -10.97469697	      0.97275171	      0.92738061	      0.42905728	     20.63868288	     -0.58131586	     -4.12424719	     13.75432544	     13.75432544	      1.42657035	     12.36380531	     -2.38524305	      2.65596128	     -3.51972023	    -16.09132273	     16.11374229	     16.11374229	     17.01820468	    -11.41226534	     -2.65501435	     -8.31043586	      5.80914794	      0.42951421	    -20.82361011	    -12.26001798	    -10.03546332	     30.50807973	     46.20153333	      0.00000000	      0.00000000	     42.52200458	    -23.69251666	    -12.90199806	     75.18000361	     48.53195443	      0.00000000	      0.00000000
      6.83207143	     -3.56072336	     -3.05855643	    -10.56482257	      0.97489305	      0.92730651	      0.43304844	     20.63604260	     -0.37151329	     -3.77429550	     14.90120107	     14.90120107	      2.05386137	     11.06580688	     -2.89040553	      1.88597506	     -3.70180171	    -15.83986750	     15.57536762	     15.57536762	     17.20498559	    -11.00904044	     -2.36320681	     -8.26266247	      5.92645434	      0.31629360	    -20.39893334	    -12.41107758	    -10.01121326	     30.68762387	     46.19453616	      0.00000000	      0.00000000	     42.05898678	    -23.51200797	    -12.90260707	     74.99757015	     48.51937543	      0.00000000	      0.00000000
      6.85271429	     -3.52570183	     -3.21800260	    -10.06758557	      0.97704553	      0.92729036	      0.43730177	     20.53811413	     -0.04557616	     -3.63475988	     15.87369682	     15.87369682	      2.75091445	      9.87820509	     -3.29758916	      1.14999109	     -4.05315701	    -15.54124641	     15.08005748	     15.08005748	     17.42609106	    -10.58203186	     -2.00832657	     -8.21481287	      6.11728605	      0.17853021	    -19.97907625	    -12.56523069	     -9.97829986	     30.85967118	     46.18750749	      0.00000000	      0.00000000	     41.46160514	    -23.26281579	    -12.85838186	     74.75325867	     48.50267149	      0.00000000	      0.00000000
      6.87335714	     -3.53921771	     -3.47040145	     -9.46880787	      0.97919116	      0.92732123	      0.44171330	     20.31976825	      0.34112503	     -3.91054187	     16.53883239	     16.53883239	      3.42115395	      9.14697179	     -3.61526234	      0.56483118	     -4.57679086	    -15.14544361	     14.76199500	     14.76199500	     17.56153516	    -10.23823956	     -1.80371265	     -8.12982996	      6.39434979	      0.07811838	    -19.54740776	    -12.66098290	     -9.95825462	     31.01353870	     46.18298362	      0.00000000	      0.00000000	     40.78792868	    -22.81185429	    -12.69282123	     74.49503094	     48.47998401	      0.00000000	      0.00000000
